<?xml version="1.0" standalone="no"?>
<!DOCTYPE svg PUBLIC "-//W3C//DTD SVG 20010904//EN"
 "http://www.w3.org/TR/2001/REC-SVG-20010904/DTD/svg10.dtd">
<svg version="1.0" xmlns="http://www.w3.org/2000/svg"
 width="928.000000pt" height="540.000000pt" viewBox="0 0 928.000000 540.000000"
 preserveAspectRatio="xMidYMid meet">

<g transform="translate(0.000000,540.000000) scale(0.100000,-0.100000)"
fill="#000000" stroke="none">
<path d="M4470 5394 c-171 -20 -295 -41 -408 -70 -361 -92 -724 -291 -996
-545 -62 -57 -65 -59 -119 -59 -62 0 -67 -7 -67 -88 0 -37 -8 -53 -53 -110
-30 -37 -66 -86 -82 -110 -15 -23 -29 -41 -30 -40 -1 2 2 44 5 93 4 50 5 93 3
98 -2 4 -20 7 -38 7 l-35 0 8 63 c4 34 7 82 7 107 l0 45 -62 3 c-55 3 -63 1
-63 -15 0 -52 -22 -197 -40 -264 -93 -356 -377 -706 -711 -874 -159 -80 -262
-106 -509 -124 -69 -6 -160 -19 -203 -30 -229 -59 -445 -188 -632 -376 -258
-258 -410 -571 -440 -907 l-7 -78 64 0 64 0 12 104 c36 301 184 583 431 819
105 99 203 168 329 232 133 67 239 94 437 110 166 14 307 42 400 80 326 135
597 385 777 718 43 81 49 87 43 52 -10 -63 -69 -232 -115 -328 -50 -105 -158
-269 -232 -351 -70 -79 -185 -169 -268 -211 -82 -41 -159 -61 -270 -70 -110
-8 -188 -28 -276 -70 -316 -151 -583 -513 -699 -945 -26 -97 -55 -289 -55
-361 l0 -39 63 0 64 0 12 123 c33 343 177 666 402 901 124 130 254 214 379
244 25 6 83 14 130 17 224 18 405 110 587 298 l89 92 -13 -85 c-23 -145 -25
-154 -57 -169 -16 -7 -72 -19 -125 -27 -131 -18 -217 -62 -320 -163 -263 -258
-457 -779 -487 -1304 l-7 -117 65 0 65 0 7 112 c30 503 213 992 455 1221 92
86 133 107 254 123 55 8 103 16 107 19 4 2 9 -57 12 -132 l5 -137 -62 -120
c-140 -274 -230 -667 -251 -1093 l-7 -133 65 0 65 0 7 129 c13 242 38 416 92
631 29 115 112 366 119 358 2 -2 17 -61 35 -133 190 -769 772 -1399 1520
-1646 l115 -38 -2 -45 c-2 -25 -12 -62 -22 -83 -11 -21 -25 -74 -30 -118 -14
-104 -31 -375 -31 -492 l0 -93 63 0 64 0 7 188 c10 276 23 397 51 472 13 36
27 82 30 103 6 35 9 38 31 33 68 -18 234 -37 359 -43 l141 -6 12 -85 c7 -51
21 -105 37 -136 30 -61 42 -145 51 -358 l7 -158 64 0 63 0 0 91 c0 199 -33
444 -65 479 -15 17 -35 102 -35 151 0 26 4 29 31 29 58 0 241 31 358 61 64 16
121 29 126 29 6 0 20 -18 33 -40 12 -22 35 -46 51 -54 22 -12 32 -28 44 -73
17 -61 33 -162 43 -275 l6 -68 65 0 65 0 -6 88 c-4 48 -14 125 -22 172 -28
158 -63 238 -116 266 -16 8 -28 20 -26 25 2 6 45 28 96 50 252 108 489 268
696 468 410 398 652 915 698 1486 6 83 12 151 13 153 1 1 15 -2 31 -9 16 -6
67 -17 113 -25 160 -26 263 -131 392 -397 130 -269 211 -608 227 -947 l7 -145
65 0 65 0 -3 100 c-17 548 -206 1114 -457 1370 -94 96 -161 133 -264 146 -131
16 -191 57 -191 131 0 39 -19 180 -36 268 l-7 35 49 -46 c184 -172 346 -264
536 -303 42 -9 102 -16 133 -16 136 0 339 -73 465 -169 304 -229 516 -620 548
-1011 l7 -85 63 -3 62 -3 0 60 c0 90 -36 282 -76 400 -131 394 -429 742 -747
873 -87 36 -231 68 -309 68 -89 0 -193 27 -294 74 -119 57 -170 92 -273 191
-182 174 -314 393 -386 640 -25 86 -54 264 -55 333 l0 32 -65 0 c-53 0 -65 3
-65 16 0 13 -11 15 -69 13 l-69 -4 -115 112 c-193 185 -369 307 -612 424 -216
104 -422 167 -665 204 -100 15 -436 28 -510 19z m500 -149 c458 -70 884 -282
1210 -604 59 -58 130 -134 157 -168 50 -61 51 -62 63 -165 54 -454 210 -882
407 -1112 32 -39 33 -42 33 -132 0 -629 -295 -1261 -780 -1666 -137 -115 -281
-208 -453 -294 -83 -40 -156 -74 -162 -74 -14 0 -23 45 -32 170 l-6 90 -63 0
-64 0 0 -42 c0 -47 18 -210 26 -244 5 -20 -1 -24 -53 -39 -89 -26 -280 -63
-364 -71 l-76 -6 -7 32 c-3 18 -6 66 -6 107 l0 74 -62 -3 -63 -3 0 -108 0
-107 -66 0 c-110 0 -423 38 -434 53 -1 1 2 93 7 205 5 112 7 210 4 218 -4 10
-22 14 -64 14 l-59 0 -6 -107 c-4 -58 -7 -143 -7 -187 0 -118 0 -118 -122 -76
-461 157 -887 498 -1147 917 -143 231 -250 510 -296 776 -20 110 -19 144 5
178 33 45 75 69 142 81 105 18 169 61 248 165 193 254 349 833 350 1291 l0
103 -62 -3 -63 -3 -2 -75 c-12 -412 -110 -846 -249 -1110 -80 -152 -155 -227
-235 -237 -53 -6 -95 -20 -131 -45 -14 -10 -29 -18 -32 -18 -3 0 -6 43 -6 95
l0 96 84 89 c106 111 172 209 247 364 104 215 180 481 214 746 9 68 20 131 25
140 5 9 44 49 87 90 386 369 820 566 1368 624 81 8 393 -4 495 -19z m-2140
-1038 c-60 -279 -196 -592 -327 -751 l-25 -29 7 39 c28 165 114 423 195 584
57 116 163 286 168 271 2 -6 -6 -57 -18 -114z m3871 -365 c39 -102 92 -297
104 -382 l6 -45 -21 33 c-30 48 -94 192 -130 295 -36 101 -100 348 -99 380 0
30 93 -153 140 -281z"/>
<path d="M3631 3929 c-153 -61 -222 -240 -148 -385 51 -99 132 -148 247 -149
116 0 197 50 252 155 34 66 32 176 -4 245 -68 129 -216 186 -347 134z"/>
<path d="M5460 3825 c-60 -19 -125 -75 -158 -139 -37 -71 -38 -179 -2 -250 89
-175 315 -208 445 -64 189 211 -15 536 -285 453z"/>
<path d="M3923 2344 c-12 -33 16 -157 51 -228 116 -234 411 -428 801 -526 119
-30 272 -56 281 -47 7 6 74 603 74 655 0 25 -4 32 -20 32 -25 0 -1114 118
-1153 125 -20 3 -30 0 -34 -11z"/>
<path d="M6653 4934 c-11 -28 26 -248 57 -345 137 -424 513 -802 925 -932 111
-36 169 -46 327 -57 75 -5 165 -16 201 -24 406 -94 790 -457 926 -876 23 -69
51 -223 51 -277 l0 -33 66 0 67 0 -6 83 c-7 91 -44 250 -79 337 -190 483 -650
861 -1106 909 -53 6 -146 15 -205 21 -389 36 -781 330 -977 733 -68 142 -95
231 -112 374 l-12 103 -58 0 c-45 0 -60 -4 -65 -16z"/>
</g>
</svg>
