<?xml version="1.0" standalone="no"?>
<!DOCTYPE svg PUBLIC "-//W3C//DTD SVG 20010904//EN"
 "http://www.w3.org/TR/2001/REC-SVG-20010904/DTD/svg10.dtd">
<svg version="1.0" xmlns="http://www.w3.org/2000/svg"
 width="411.000000pt" height="479.000000pt" viewBox="0 0 411.000000 479.000000"
 preserveAspectRatio="xMidYMid meet">

<g transform="translate(0.000000,479.000000) scale(0.100000,-0.100000)"
fill="#000000" stroke="none">
<path d="M1043 4241 l-1013 -506 0 -1340 0 -1340 1013 -506 1012 -506 1013
506 1012 506 0 1340 0 1340 -1012 506 -1013 506 -1012 -506z m428 -1118 l607
-350 568 329 c313 180 584 333 602 339 46 15 96 3 137 -32 63 -55 66 -151 7
-208 -15 -14 -289 -177 -609 -361 l-583 -335 0 -680 c0 -661 -1 -681 -20 -713
-56 -92 -188 -95 -247 -5 -17 25 -18 74 -23 727 l-5 699 -585 338 c-322 185
-597 348 -611 361 -15 13 -33 43 -40 66 -11 38 -10 48 7 90 27 66 73 95 139
90 44 -4 121 -45 656 -355z"/>
</g>
</svg>
